<svg width="34" height="34" viewBox="0 0 34 34" fill="none" xmlns="http://www.w3.org/2000/svg">
<path d="M26.2749 22.8815C27.5038 24.5305 28.7711 26.2177 30.0384 27.905C27.5038 30.8961 24.3547 32.8134 20.5528 33.6187C16.3285 34.5007 12.3345 33.8488 8.45579 31.7014C11.9121 29.1321 15.2916 26.6012 18.7095 24.0703C19.4775 24.7989 20.2072 25.5275 20.9368 26.2177C21.7433 26.9847 21.4361 27.023 22.473 26.4478C23.8939 25.6425 25.0844 24.5305 26.0061 23.1883C26.0445 23.1116 26.1213 23.0349 26.1597 22.9582C26.1213 22.9582 26.1597 22.9582 26.2749 22.8815ZM11.1824 26.2561C10.2223 26.9847 9.33907 27.6366 8.45579 28.3268C7.80294 28.8253 7.15009 29.2855 6.49723 29.784C6.22841 30.0141 6.03639 30.0141 5.72917 29.7457C2.81052 27.1381 0.967169 23.9169 0.275911 20.0822C-0.415346 16.2092 0.199105 12.5278 2.04246 9.03825C2.08086 8.96156 2.15767 8.84651 2.19607 8.76982C2.19607 8.73147 2.23447 8.73147 2.31128 8.69313C4.84589 12.0293 7.41891 15.3655 9.95352 18.7017C9.87671 18.8168 9.83831 18.8934 9.7615 18.9701C8.99344 19.7754 8.22538 20.5807 7.41891 21.3477C7.18849 21.5777 7.15008 21.7695 7.3037 22.0379C8.11016 23.5718 9.22386 24.8372 10.6064 25.8726C10.7984 25.9877 10.952 26.1027 11.1824 26.2561ZM25.5068 2.44255C24.2779 3.32453 23.049 4.20652 21.8201 5.05015C19.7079 6.54569 17.5958 8.07957 15.522 9.57511C15.2532 9.76684 15.0611 9.80519 14.8307 9.53676C14.1395 8.80817 13.4098 8.15627 12.7186 7.42767C12.5265 7.23594 12.3345 7.19759 12.0657 7.31263C10.4144 8.15627 9.10865 9.34503 8.03336 10.8406C7.95655 10.9173 7.87975 11.0323 7.80294 11.1473C7.18849 10.3421 6.61244 9.61346 6.03639 8.84651C5.42194 8.04123 4.84589 7.23594 4.26985 6.469C4.07783 6.20057 4.03943 6.00883 4.30825 5.7404C7.26529 2.4809 10.9136 0.563545 15.2916 0.10338C18.7479 -0.280091 22.0505 0.410157 25.1228 2.05908C25.238 2.13578 25.3532 2.17412 25.4684 2.25082C25.4684 2.36586 25.4684 2.40421 25.5068 2.44255ZM31.7665 25.4508C30.9601 24.4154 30.2304 23.4568 29.5007 22.4981C27.811 20.2739 26.1213 18.0115 24.3931 15.7873C24.1627 15.4806 24.1627 15.2888 24.4315 15.0204C25.1612 14.2918 25.8524 13.5632 26.5821 12.8346C26.7741 12.6429 26.8509 12.4511 26.6973 12.1827C25.8524 10.5721 24.7003 9.22998 23.2026 8.15627C23.0874 8.07957 22.9722 7.96453 22.8186 7.88784C22.9338 7.7728 23.049 7.6961 23.1258 7.61941C24.5851 6.50734 26.0445 5.43362 27.5038 4.32156C27.7342 4.12982 27.9262 4.05313 28.195 4.32156C31.8433 7.61941 33.8019 11.7225 33.9939 16.6693C34.0707 19.5454 33.4179 22.268 32.1122 24.8372C31.997 24.9906 31.8817 25.1824 31.7665 25.4508Z" fill="white"/>
</svg>
