<svg width="44" height="44" viewBox="0 0 44 44" fill="none" xmlns="http://www.w3.org/2000/svg">
<path d="M1 22C1 10.402 10.402 1 22 1C33.598 1 43 10.402 43 22C43 33.598 33.598 43 22 43C10.402 43 1 33.598 1 22Z" stroke="url(#paint0_linear)" stroke-width="2"/>
<path d="M1 22C1 10.402 10.402 1 22 1C33.598 1 43 10.402 43 22C43 33.598 33.598 43 22 43C10.402 43 1 33.598 1 22Z" stroke="url(#paint1_angular)" stroke-width="2"/>
<path opacity="0.4" d="M24.9459 15H17V15.9813H18.1624V18.5164C18.1607 19.2287 18.3461 19.9284 18.6993 20.5415C19.0524 21.1547 19.5601 21.6585 20.1688 22C19.5601 22.3415 19.0524 22.8453 18.6993 23.4585C18.3461 24.0716 18.1607 24.7713 18.1624 25.4836V28.0187H17V29H27V28.0187H25.9013V25.4836C25.903 24.7713 25.7176 24.0716 25.3644 23.4585C25.0113 22.8453 24.5036 22.3415 23.8949 22C24.5036 21.6585 25.0113 21.1547 25.3644 20.5415C25.7176 19.9284 25.903 19.2287 25.9013 18.5164V15.9813H27V15H24.9459ZM24.9459 25.4836V28.0187H24.707L22.3503 25.2874C22.307 25.2355 22.2532 25.1939 22.1928 25.1654C22.1323 25.1369 22.0665 25.1221 22 25.1221C21.9335 25.1221 21.8677 25.1369 21.8072 25.1654C21.7468 25.1939 21.693 25.2355 21.6497 25.2874L19.293 28.0187H19.1178V25.4836C19.1178 24.6899 19.4248 23.9286 19.9713 23.3673C20.5178 22.806 21.259 22.4907 22.0318 22.4907C22.8047 22.4907 23.5459 22.806 24.0924 23.3673C24.6388 23.9286 24.9459 24.6899 24.9459 25.4836ZM24.9459 17.8458H19.1178V15.9813H24.9459V17.8458Z" fill="white"/>
<defs>
<linearGradient id="paint0_linear" x1="22" y1="12" x2="22" y2="31" gradientUnits="userSpaceOnUse">
<stop stop-color="#00A192"/>
<stop offset="1" stop-color="#00F0FF"/>
</linearGradient>
<radialGradient id="paint1_angular" cx="0" cy="0" r="1" gradientUnits="userSpaceOnUse" gradientTransform="translate(22 22) rotate(-90) scale(22)">
<stop stop-color="white" stop-opacity="0"/>
<stop offset="0.563436" stop-color="white" stop-opacity="0"/>
<stop offset="0.563536" stop-color="#13191D"/>
<stop offset="1" stop-color="#13191D"/>
</radialGradient>
</defs>
</svg>
